<svg height="112.94118" viewBox="0 0 15 15" width="112.94118" xmlns="http://www.w3.org/2000/svg"><path d="m14.996 10.352.004 4.648-4.649-.004.001-1 2.94.003-5.792-5.791-5.792 5.792 2.94-.003.001 1-4.649.003.00399999-4.649 1.00000001.001-.003 2.939 5.792-5.791-5.792-5.792.003 2.939-1.00000001.001-.00399999-4.648 4.649.00399999-.001 1.00000001-2.94-.003 5.792 5.792 5.792-5.792-2.94.003-.001-1.00000001 4.649-.00399999-.004 4.649-1-.001.003-2.939-5.792 5.791 5.792 5.792-.003-2.939z" fill="#fff"/></svg>