<svg xmlns="http://www.w3.org/2000/svg" width="50.001" height="50.001" viewBox="0 0 13.229 13.229"><circle cx="6.615" cy="6.615" r="6.374" fill="none" stroke="#fff" stroke-linecap="round" stroke-linejoin="bevel" stroke-width=".482"/><path d="M5.771 8.312v-.457q0-.546.138-.877.138-.336.419-.567.287-.237.711-.485.424-.26.606-.557.182-.303.182-.623 0-.309-.143-.535-.143-.231-.408-.358t-.623-.127q-.391 0-.678.16-.286.16-.44.458-.155.292-.155.694H3.82q0-.777.353-1.367.358-.595.997-.931.645-.342 1.5-.342.81 0 1.422.28.617.282.964.784.353.496.353 1.14 0 .618-.28 1.12-.277.501-.828.87-.341.227-.584.42-.237.187-.364.407-.121.22-.121.546v.347zm.75 2.52q-.386 0-.662-.27-.275-.276-.275-.668 0-.391.275-.661.276-.276.662-.276.391 0 .661.276.276.27.276.661 0 .392-.276.667-.27.27-.661.27" aria-label="?" style="font-size:11.2888px;font-family:&quot;Adwaita Sans&quot;;-inkscape-font-specification:&quot;Adwaita Sans, @opsz=32,wght=700&quot;;font-variation-settings:&quot;opsz&quot;32,&quot;wght&quot;700;text-align:center;writing-mode:vertical-lr;text-anchor:middle;fill:azure;fill-opacity:1;stroke:none;stroke-width:.0999988;stroke-linecap:square;stroke-dasharray:none"/></svg>