<svg height="13.229327mm" viewBox="0 0 13.229165 13.229165" width="13.229327mm" xmlns="http://www.w3.org/2000/svg"><g stroke="#fff" stroke-linecap="round"><circle cx="6.61458224687" cy="6.61458683187" fill="none" r="6.37368742776" stroke-linejoin="bevel" stroke-width=".48179057"/><g fill="#fff" stroke-linejoin="round"><g transform="matrix(.96358114 0 0 .96358114 -12.506481 -104.28758)"><path d="m18.206249 112.19062-1.058333 2.07938h.79375.529167.79375z" stroke-width=".19823"/><path d="m21.196666 120.86-1.058333-2.19666h.79375.529167.79375z" stroke-width=".203744"/></g><g stroke-width=".199998"><path d="m4.7625017 6.6145896.0144437-.9260416h.5098995l.00482.9260416z"/><path d="m4.7625017 6.6145896-1.8520606 2.6458009.0000372.5292705h1.8520832l-.00988 1.626127h.5100402l.029005-1.626127h1.0583348l-.0000792-.5292705h-1.0743399l.014469-2.378637.00155-.00258v-.2645839zm.0000598 1.0584045-.00523 1.5873964h-1.0531501z"/><path d="m7.7018204 1.4359453-.028908 8.5796887h.5291668l.00964-8.5796887z"/></g></g></g></svg>