<svg height="16.364071mm" viewBox="0 0 9.2604198 16.364071" width="9.26042mm" xmlns="http://www.w3.org/2000/svg"><g fill="#fff" transform="translate(0 -280.63593)"><path d="m0 285.88764v2.64579s0 3.9687 3.9687507 3.9687h1.3229172s3.968751 0 3.968751-3.9687l.000001-2.64579h-1.3229183v2.64579s-.0001029 2.68089-2.6458338 2.6575l-1.3229172-.0117s-2.6458335 0-2.6458335-2.64581v-2.64579z"/><path d="m1.5875 288.53333s0 2.38125 2.4060554 2.3896l1.2981113-.008s2.3796344-.00035 2.3803997-2.38154l.0008503-2.64554v-3.43958s0-1.81234-2.3987888-1.81234h-1.3229172s-2.3002143.00006-2.3151042 1.85207z"/><path d="m3.96875 292.50208.0000017 3.17502h-2.6458336v1.3229h6.6145846v-1.3229h-2.6458338l-.0000022-3.17502z"/></g></svg>