<svg height="13.229327mm" viewBox="0 0 13.229165 13.229165" width="13.229327mm" xmlns="http://www.w3.org/2000/svg"><circle cx="19.84375" cy="115.09375" fill="none" r="6.614583" stroke="#fff" stroke-linecap="round" stroke-linejoin="bevel" stroke-width=".5" transform="matrix(.96358114 0 0 .96358114 -12.506481 -104.28758)"/><path d="m4.2273399 4.6608965c-.047866.5105903-.081461 1.4142008.2200249 1.7988233 0 0-.1419243-.992628 1.1303534-2.238032.512269-.5013529.6306792-1.1832598.4518044-1.69469-.1016139-.2897266-.2872068-.5290658-.4484461-.6961835-.0940575-.0982553-.0218417-.2603342.1150502-.2544565.8280297.0369496 2.1700094.2670536 2.7402248 1.6980493.250255.6281607.2687334 1.2773159.1494817 1.9373883-.075579.4215732-.3443124 1.3587754.2687335 1.4738263.4375289.0822985.6491552-.2653738.7440511-.5156291.0394712-.104133.1763559-.1301689.2502551-.0470287.7390131.8406268.8019971 1.8307355.6491551 2.6831216-.295603 1.6476605-1.9642616 2.8468775-3.6220008 2.8468775-2.0709144 0-3.7194164-1.18494-4.1468679-3.3297573-.172158-.8658204-.08482-2.5789855 1.2504429-3.7882788.099093-.090698.2611722-.010084.2477377.1259696z" fill="none" stroke-width=".083979"/><path d="m6.3849136 1.1320402v8.9368738h-.6890037l.9186716 1.837343.9186716-1.837343h-.6890037v-8.9368738z" fill="#fff" stroke="#fff" stroke-linecap="round" stroke-linejoin="round" stroke-width=".173608"/></svg>