<svg xmlns="http://www.w3.org/2000/svg" xml:space="preserve" width="50.001" height="50.001" viewBox="0 0 13.229 13.229"><circle cx="19.844" cy="115.094" r="6.615" style="fill:none;fill-opacity:1;stroke:#fff;stroke-width:.5;stroke-linecap:round;stroke-linejoin:bevel;stroke-dasharray:none;stroke-dashoffset:0;stroke-opacity:1;paint-order:stroke fill markers" transform="translate(-12.506 -104.288)scale(.96358)"/><path fill="url(#IconifyId17ecdb2904d178eab8626)" d="M4.227 4.66c-.048.511-.081 1.415.22 1.8 0 0-.142-.993 1.13-2.238.513-.502.631-1.184.453-1.695a2 2 0 0 0-.449-.696.15.15 0 0 1 .115-.255c.828.037 2.17.267 2.74 1.698.25.629.27 1.278.15 1.938-.076.421-.344 1.359.269 1.474.437.082.649-.266.744-.516a.15.15 0 0 1 .25-.047c.739.84.802 1.83.649 2.683-.296 1.648-1.964 2.847-3.622 2.847-2.07 0-3.72-1.185-4.147-3.33-.172-.866-.085-2.579 1.25-3.788.1-.09.262-.01.248.126" style="display:inline;fill:#b80000;fill-opacity:1;stroke-width:.0839787"/><path d="M6.385 1.132v8.937h-.69l.92 1.837.918-1.837h-.689V1.132Z" style="display:inline;fill:#fff;fill-opacity:1;stroke:#fff;stroke-width:.173608;stroke-linecap:round;stroke-linejoin:round;stroke-dasharray:none;stroke-opacity:1;paint-order:normal"/></svg>