<svg height="46" viewBox="0 0 45.996002 46" width="45.996002" xmlns="http://www.w3.org/2000/svg"><path d="m45.158 19.221-5.91-.966c-.346-1.186-.819-2.326-1.411-3.405l3.45-4.917c.279-.397.231-.938-.112-1.282l-3.889-3.887c-.347-.346-.893-.391-1.291-.104l-4.843 3.481c-1.089-.602-2.239-1.08-3.432-1.427l-1.031-5.886c-.084-.478-.499-.828-.985-.828h-5.5c-.49 0-.908.355-.987.839l-.956 5.854c-1.2.345-2.352.818-3.437 1.412l-4.83-3.45c-.399-.285-.942-.239-1.289.106l-3.887 3.887c-.343.343-.391.883-.112 1.28l3.399 4.863c-.605 1.095-1.087 2.254-1.438 3.46l-5.831.971c-.482.08-.836.498-.836.986v5.5c0 .485.348.9.825.985l5.831 1.034c.349 1.203.831 2.362 1.438 3.46l-3.441 4.813c-.284.397-.239.942.106 1.289l3.888 3.891c.343.343.884.391 1.281.112l4.87-3.411c1.093.601 2.248 1.078 3.445 1.424l.976 5.861c.079.481.496.834.985.834h5.5c.485 0 .9-.348.984-.825l1.045-5.89c1.199-.353 2.348-.833 3.43-1.435l4.905 3.441c.398.281.938.232 1.282-.111l3.888-3.891c.346-.347.391-.894.104-1.292l-3.498-4.857c.593-1.08 1.064-2.222 1.407-3.408l5.918-1.039c.479-.084.827-.5.827-.985v-5.5c.001-.49-.354-.908-.838-.987zm-22.16 10.779c-3.866 0-7-3.134-7-7s3.134-7 7-7 7 3.134 7 7-3.134 7-7 7z" fill="#fff"/></svg>