<svg height="13.229328mm" viewBox="0 0 13.229165 13.229166" width="13.229327mm" xmlns="http://www.w3.org/2000/svg"><g stroke="#fff" stroke-linecap="round" transform="matrix(-.96358114 0 0 -.96358114 25.735646 117.51675)"><circle cx="19.84375" cy="115.09375" fill="none" r="6.614583" stroke-linejoin="bevel" stroke-width=".5"/><g stroke-linejoin="round"><path d="m19.843749 120.58542-1.058333-2.11667h.79375.529167.79375z" fill="#fff" stroke-width=".2"/><path d="m6.6145815 7.1437564s1.3229166-.79375 1.3229166-1.3229168-1.3229166-1.3229168-1.3229166-1.3229168" fill="none" stroke-width=".399995" transform="matrix(1.0377953 0 0 1.0377953 12.979167 108.22916)"/><path d="m6.5550506 10.054173c.3292381.014108-.3430991-.8180099-1.2633857-1.5874998-.405956-.3394367 1.3229166-1.3229168 1.3229166-1.3229168" fill="none" stroke-width=".399995" transform="matrix(1.0377953 0 0 1.0377953 12.979167 108.22916)"/><path d="m6.6145815 4.4979228s-1.3229166-.7937497-1.3229166-1.3229162c0-.5291668 1.3229166-1.3229168 1.3229166-1.3229168l.7432003-.4617516" fill="none" stroke-width=".399995" transform="matrix(1.0377953 0 0 1.0377953 12.979167 108.22916)"/></g></g></svg>