<svg height="17.029114mm" viewBox="0 0 17.876839 17.029114" width="17.876839mm" xmlns="http://www.w3.org/2000/svg"><path d="m92.604166 131.63542c.637818 0 1.933408 5.5142 2.449413 5.8891.516005.37489 6.160681-.0969 6.357771.5097.1971.6066-4.646855 3.54276-4.843951 4.14936-.197097.6066 1.995911 5.82921 1.479906 6.20411-.516006.3749-4.805325-3.32465-5.443142-3.32465s-4.927138 3.69954-5.443143 3.32464 1.677005-5.5975 1.479909-6.2041c-.197097-.6066-5.04105-3.54277-4.843953-4.14937.197096-.6066 5.84177-.1348 6.357775-.5097s1.811598-5.88909 2.449415-5.88909z" fill="#ff0" stroke="#000" stroke-linecap="round" stroke-linejoin="round" stroke-width=".6" transform="translate(-83.665746 -131.51042)"/></svg>