<svg height="453.78821" shape-rendering="crispEdges" viewBox="0 0 393.48242 453.78821" width="393.48242" xmlns="http://www.w3.org/2000/svg"><g transform="translate(-55 -313.106139)"><path d="m363.85547 318.10547-17.97656 17.58203s16.52752 15.94264 33.54101 50.1875c17.0135 34.24487 34.04492 86.33391 34.04492 157.11719 0 70.78408-17.06532 121.54454-34.04492 154.59179-16.97879 33.05131-33.28906 47.91602-33.28906 47.91602l18.37695 16.39453s25.53075-23.20254 43.41016-58.00586c17.88345-34.70163 35.56445-87.96437 35.56445-160.5957 0-73.00015-17.7147-127.24969-35.55859-163.16992-17.84472-35.91701-44.0625-61.71485-44.0625-61.71485zm-52.71094 50.07226-.004.20508-19.48046 16.78711s12.92971 12.15877 26.22851 38.08008c13.29878 25.92052 26.73242 65.32349 26.73242 119.03516 0 53.71168-13.46915 92.01625-26.73242 117.01757-13.26331 25.00132-25.97656 36.0625-25.97656 36.0625l18.125 17.03907s21.89304-19.7706 36.0957-46.54492c14.20264-26.77354 28.2461-67.57237 28.2461-123.57032 0-56.00118-14.07896-97.72991-28.2461-125.33789-14.16715-27.61443-34.98828-48.77344-34.98828-48.77344zm-99.39062 16.84375c-2.36303-.19454-5.70772 1.16692-10.40625 4.38282-18.79515 12.864-87.07422 87.34765-87.07422 87.34765-.59554 0-1.06454.21213-1.64258.27539h-52.63086v130.88477h54.27734s67.06648 74.75904 87.07422 87.62305c20.00722 12.86347 15.88086-7.12385 15.88086-15.88086v-274.64258c0-6.56856 1.61235-19.4036-5.47656-19.98828zm39.89453 30.81446-20.26953 18.96094s47.66406 33.54316 47.66406 106.67968c0 73.1333-47.41211 104.41016-47.41211 104.41016l19.76367 21.18555s57.40625-46.41246 57.40625-125.58789c0-79.18107-57.1543-125.63672-57.1543-125.63672z" fill="none"/><path d="m363.85547 318.10547-17.97656 17.58203s16.52752 15.94264 33.54101 50.1875c17.0135 34.24487 34.04492 86.33391 34.04492 157.11719 0 70.78408-17.06532 121.54454-34.04492 154.59179-16.97879 33.05131-33.28906 47.91602-33.28906 47.91602l18.37695 16.39453s25.53075-23.20254 43.41016-58.00586c17.88345-34.70163 35.56445-87.96437 35.56445-160.5957 0-73.00015-17.7147-127.24969-35.55859-163.16992-17.84472-35.91701-44.0625-61.71485-44.0625-61.71485zm-52.71094 50.07226-.004.20508-19.48046 16.78711s12.92971 12.15877 26.22851 38.08008c13.29878 25.92052 26.73242 65.32349 26.73242 119.03516 0 53.71168-13.46915 92.01625-26.73242 117.01757-13.26331 25.00132-25.97656 36.0625-25.97656 36.0625l18.125 17.03907s21.89304-19.7706 36.0957-46.54492c14.20264-26.77354 28.2461-67.57237 28.2461-123.57032 0-56.00118-14.07896-97.72991-28.2461-125.33789-14.16715-27.61443-34.98828-48.77344-34.98828-48.77344zm-99.39062 16.84375c-2.36303-.19454-5.70772 1.16692-10.40625 4.38282-7.06579 4.83605-21.12507 18.38072-35.92102 33.40274-24.56159 24.93689-51.1532 53.94491-51.1532 53.94491-.59554 0-1.06454.21213-1.64258.27539h-52.63086v130.88477h54.27734s67.06648 74.75904 87.07422 87.62305c20.00722 12.86347 15.88086-7.12385 15.88086-15.88086v-274.64258c0-6.56856 1.61235-19.4036-5.47656-19.98828zm39.89453 30.81446-20.26953 18.96094s47.66406 33.54316 47.66406 106.67968c0 73.1333-47.41211 104.41016-47.41211 104.41016l19.76367 21.18555s57.40625-46.41246 57.40625-125.58789c0-79.18107-57.1543-125.63672-57.1543-125.63672z" fill="#fff"/></g></svg>