<?xml version="1.0" encoding="UTF-8" standalone="no"?>
<svg
   width="112.94118"
   height="112.94118"
   viewBox="0 0 15 15"
   version="1.1"
   id="svg1"
   xmlns="http://www.w3.org/2000/svg"
   xmlns:svg="http://www.w3.org/2000/svg">
  <defs
     id="defs1" />
  <path
     d="M 14.996,10.352 15,15 l -4.649,-0.004 10e-4,-1 2.94,0.003 L 7.5,8.208 1.708,14 l 2.94,-0.003 0.001,1 L 0,15 0.00399999,10.351 1.004,10.352 1.001,13.291 6.793,7.5 1.001,1.708 1.004,4.647 0.00399999,4.648 0,0 4.649,0.00399999 4.648,1.004 1.708,1.001 7.5,6.793 13.292,1.001 10.352,1.004 10.351,0.00399999 15,0 l -0.004,4.649 -1,-0.001 0.003,-2.939 -5.792,5.791 5.792,5.792 -0.003,-2.939 z"
     fill="#000000"
     id="path1"
     style="fill:#ffffff;fill-opacity:1" />
</svg>
