<?xml version="1.0" encoding="UTF-8" standalone="no"?>
<!-- Created with Inkscape (http://www.inkscape.org/) -->

<svg
   width="13.229327mm"
   height="13.229327mm"
   viewBox="0 0 13.229165 13.229165"
   version="1.1"
   id="svg1"
   xmlns="http://www.w3.org/2000/svg"
   xmlns:svg="http://www.w3.org/2000/svg">
  <defs
     id="defs1" />
  <g
     id="layer1"
     transform="matrix(0.96358114,0,0,0.96358114,-12.506481,-104.28758)">
    <circle
       style="fill:none;fill-opacity:1;stroke:#ffffff;stroke-width:0.5;stroke-linecap:round;stroke-linejoin:bevel;stroke-dasharray:none;stroke-dashoffset:0;stroke-opacity:1;paint-order:stroke fill markers"
       id="path1"
       cx="19.84375"
       cy="115.09375"
       r="6.614583" />
    <path
       style="fill:#ffffff;fill-opacity:1;stroke:#ffffff;stroke-width:0.2;stroke-linecap:round;stroke-linejoin:round;stroke-dasharray:none;stroke-dashoffset:0;stroke-opacity:1;paint-order:stroke fill markers"
       d="m 18.450832,120.82001 -1.058333,-2.11667 h 0.79375 0.529167 0.79375 z"
       id="path2" />
    <path
       style="fill:#ffffff;fill-opacity:1;stroke:#ffffff;stroke-width:0.192558;stroke-linecap:round;stroke-linejoin:round;stroke-dasharray:none;stroke-dashoffset:0;stroke-opacity:1;paint-order:stroke fill markers"
       d="m 21.236666,109.71938 -1.058333,1.96208 h 0.79375 0.529167 0.79375 z"
       id="path2-9" />
  </g>
  <path
     id="path6"
     style="fill:#ffffff;fill-opacity:1;stroke:#ffffff;stroke-width:0.199998;stroke-linecap:round;stroke-linejoin:round;stroke-dasharray:none;stroke-opacity:1;paint-order:normal"
     d="m 5.0270217,5.2916018 -1.8520606,2.6458009 3.72e-5,0.5292704 H 5.0270815 L 5.0172033,10.0928 H 5.5272435 L 5.5562482,8.4666731 H 6.6145815 L 6.6145023,7.9374027 H 5.5401624 l 0.014469,-2.378637 0.00155,-0.00258 V 5.2916018 Z m 5.98e-5,1.0584045 -0.00523,1.5873964 H 3.9687014 Z" />
  <path
     style="fill:#ffffff;fill-opacity:1;stroke:#ffffff;stroke-width:0.199998;stroke-linecap:round;stroke-linejoin:round;stroke-dasharray:none;stroke-opacity:1;paint-order:normal"
     d="m 7.7018227,3.3265686 -0.028908,8.5796884 h 0.5291668 l 0.00964,-8.5796884 z"
     id="path7" />
</svg>
