<?xml version="1.0" encoding="UTF-8" standalone="no"?>
<!-- Created with Inkscape (http://www.inkscape.org/) -->

<svg
   width="9.2604198mm"
   height="16.364071mm"
   viewBox="0 0 9.2604198 16.364071"
   version="1.1"
   id="svg8"
   xmlns="http://www.w3.org/2000/svg"
   xmlns:svg="http://www.w3.org/2000/svg"
   xmlns:rdf="http://www.w3.org/1999/02/22-rdf-syntax-ns#"
   xmlns:cc="http://creativecommons.org/ns#"
   xmlns:dc="http://purl.org/dc/elements/1.1/">
  <defs
     id="defs2" />
  <metadata
     id="metadata5">
    <rdf:RDF>
      <cc:Work
         rdf:about="">
        <dc:format>image/svg+xml</dc:format>
        <dc:type
           rdf:resource="http://purl.org/dc/dcmitype/StillImage" />
        <dc:title />
      </cc:Work>
    </rdf:RDF>
  </metadata>
  <g
     id="layer1"
     transform="translate(0,-280.63593)">
    <path
       style="fill:#ffffff;fill-opacity:1;stroke:none;stroke-width:0.264582px;stroke-linecap:butt;stroke-linejoin:miter;stroke-opacity:1"
       d="m 0,285.88764 v 2.64579 c 0,0 0,3.9687 3.9687507,3.9687 h 1.3229172 c 0,0 3.968751,0 3.968751,-3.9687 l 1e-6,-2.64579 H 7.9375016 v 2.64579 c 0,0 -1.029e-4,2.68089 -2.6458338,2.6575 l -1.3229172,-0.0117 c 0,0 -2.6458335,0 -2.6458335,-2.64581 v -2.64579 z"
       id="path841" />
    <path
       style="fill:#ffffff;fill-opacity:1;stroke:none;stroke-width:0.264582px;stroke-linecap:butt;stroke-linejoin:miter;stroke-opacity:1"
       d="m 1.5875,288.53333 c 0,0 0,2.38125 2.4060554,2.3896 l 1.2981113,-0.008 c 0,0 2.3796344,-3.5e-4 2.3803997,-2.38154 l 8.503e-4,-2.64554 v -3.43958 c 0,0 0,-1.81234 -2.3987888,-1.81234 H 3.9512107 c 0,0 -2.3002143,6e-5 -2.3151042,1.85207 z"
       id="path843" />
    <path
       style="fill:#ffffff;fill-opacity:1;stroke:none;stroke-width:0.264582px;stroke-linecap:butt;stroke-linejoin:miter;stroke-opacity:1"
       d="m 3.96875,292.50208 1.7e-6,3.17502 H 1.3229181 V 297 h 6.6145846 v -1.3229 H 5.2916689 l -2.2e-6,-3.17502 z"
       id="path845" />
  </g>
</svg>
