<?xml version="1.0" encoding="UTF-8" standalone="no"?>
<!-- Created with Inkscape (http://www.inkscape.org/) -->

<svg
   width="13.229327mm"
   height="13.229328mm"
   viewBox="0 0 13.229165 13.229166"
   version="1.1"
   id="svg1"
   xmlns="http://www.w3.org/2000/svg"
   xmlns:svg="http://www.w3.org/2000/svg">
  <defs
     id="defs1" />
  <g
     id="layer1"
     transform="matrix(-0.96358114,0,0,-0.96358114,25.735646,117.51675)">
    <circle
       style="fill:none;fill-opacity:1;stroke:#ffffff;stroke-width:0.5;stroke-linecap:round;stroke-linejoin:bevel;stroke-dasharray:none;stroke-dashoffset:0;stroke-opacity:1;paint-order:stroke fill markers"
       id="path1"
       cx="19.84375"
       cy="115.09375"
       r="6.614583" />
    <path
       style="fill:#ffffff;fill-opacity:1;stroke:#ffffff;stroke-width:0.2;stroke-linecap:round;stroke-linejoin:round;stroke-dasharray:none;stroke-dashoffset:0;stroke-opacity:1;paint-order:stroke fill markers"
       d="m 19.843749,120.58542 -1.058333,-2.11667 h 0.79375 0.529167 0.79375 z"
       id="path2" />
    <path
       style="fill:none;stroke:#ffffff;stroke-width:0.399995;stroke-linecap:round;stroke-linejoin:round;stroke-dasharray:none;stroke-opacity:1;paint-order:normal"
       d="m 6.6145815,7.1437564 c 0,0 1.3229166,-0.79375 1.3229166,-1.3229168 0,-0.5291668 -1.3229166,-1.3229168 -1.3229166,-1.3229168 0,0 0,0 0,0"
       id="path6-0"
       transform="matrix(1.0377953,0,0,1.0377953,12.979167,108.22916)" />
    <path
       style="fill:none;stroke:#ffffff;stroke-width:0.399995;stroke-linecap:round;stroke-linejoin:round;stroke-dasharray:none;stroke-opacity:1;paint-order:normal"
       d="M 6.5550506,10.054173 C 6.8842887,10.068281 6.2119515,9.2361631 5.2916649,8.4666732 4.8857089,8.1272365 6.6145815,7.1437564 6.6145815,7.1437564 v 0"
       id="path6"
       transform="matrix(1.0377953,0,0,1.0377953,12.979167,108.22916)" />
    <path
       style="fill:none;stroke:#ffffff;stroke-width:0.399995;stroke-linecap:round;stroke-linejoin:round;stroke-dasharray:none;stroke-opacity:1;paint-order:normal"
       d="m 6.6145815,4.4979228 c 0,0 -1.3229166,-0.7937497 -1.3229166,-1.3229162 0,-0.5291668 1.3229166,-1.3229168 1.3229166,-1.3229168 L 7.3577818,1.3903382"
       id="path6-9"
       transform="matrix(1.0377953,0,0,1.0377953,12.979167,108.22916)" />
  </g>
</svg>
