<?xml version="1.0" encoding="UTF-8" standalone="no"?>
<!-- Created with Inkscape (http://www.inkscape.org/) -->

<svg
   width="13.229327mm"
   height="13.229327mm"
   viewBox="0 0 13.229165 13.229165"
   version="1.1"
   id="svg1"
   xml:space="preserve"
   xmlns="http://www.w3.org/2000/svg"
   xmlns:svg="http://www.w3.org/2000/svg"><defs
     id="defs1" /><g
     id="layer1"
     transform="matrix(0.96358114,0,0,0.96358114,-12.506481,-104.28758)"><circle
       style="fill:none;fill-opacity:1;stroke:#ffffff;stroke-width:0.5;stroke-linecap:round;stroke-linejoin:bevel;stroke-dasharray:none;stroke-dashoffset:0;stroke-opacity:1;paint-order:stroke fill markers"
       id="path1"
       cx="19.84375"
       cy="115.09375"
       r="6.614583" /></g><g
     id="layer2"
     style="display:none"><path
       style="fill:#ffffff;fill-opacity:1;stroke:#ffffff;stroke-width:0.199998;stroke-linecap:round;stroke-linejoin:round;stroke-dasharray:none;stroke-opacity:1;paint-order:normal"
       d="m 4.7699154,6.4822787 0.00703,-0.7937307 h 0.5098995 l 0.00964,0.7937499 z"
       id="path8" /><path
       id="path6"
       style="fill:#ffffff;fill-opacity:1;stroke:#ffffff;stroke-width:0.199998;stroke-linecap:round;stroke-linejoin:round;stroke-dasharray:none;stroke-opacity:1;paint-order:normal"
       d="m 4.7625017,6.6145896 -1.8520606,2.6458009 3.72e-5,0.5292705 h 1.8520832 l -0.00988,1.626127 H 5.2627217 L 5.2917267,9.789661 H 6.3500615 L 6.3499823,9.2603905 H 5.2756424 l 0.014469,-2.378637 0.00155,-0.00258 V 6.6145896 Z m 5.98e-5,1.0584045 -0.00523,1.5873964 H 3.7041814 Z" /><path
       style="fill:#ffffff;fill-opacity:1;stroke:#ffffff;stroke-width:0.199998;stroke-linecap:round;stroke-linejoin:round;stroke-dasharray:none;stroke-opacity:1;paint-order:normal"
       d="m 7.7018204,1.4359453 -0.028908,8.5796887 h 0.5291668 l 0.00964,-8.5796887 z"
       id="path7" /><path
       style="fill:#ffffff;fill-opacity:1;stroke:#ffffff;stroke-width:0.203744;stroke-linecap:round;stroke-linejoin:round;stroke-dasharray:none;stroke-dashoffset:0;stroke-opacity:1;paint-order:stroke fill markers"
       d="m 21.196666,120.86 -1.058333,-2.19666 h 0.79375 0.529167 0.79375 z"
       id="path2-9"
       transform="matrix(0.96358114,0,0,0.96358114,-12.506481,-104.28758)" /><path
       style="fill:#ffffff;fill-opacity:1;stroke:#ffffff;stroke-width:0.19823;stroke-linecap:round;stroke-linejoin:round;stroke-dasharray:none;stroke-dashoffset:0;stroke-opacity:1;paint-order:stroke fill markers"
       d="M 18.206249,112.19062 17.147916,114.27 h 0.79375 0.529167 0.79375 z"
       id="path2"
       transform="matrix(0.96358114,0,0,0.96358114,-12.506481,-104.28758)" /></g><g
     id="layer5"
     transform="rotate(180,6.6145819,6.8264886)"><g
       style="display:none;fill:#ffffff;fill-opacity:1"
       id="g13"
       transform="matrix(0.54680559,0,0,0.54680559,2.2401367,2.1166727)"><path
         d="M 7.184,11.246 A 3.5,3.5 0 0 1 1,9 C 1,7.398 2.14,6.367 3.66,4.992 4.986,3.792 6.602,2.33 8,0 9.398,2.33 11.014,3.792 12.34,4.992 13.86,6.367 15,7.398 15,9 a 3.5,3.5 0 0 1 -6.184,2.246 19.92,19.92 0 0 0 1.582,2.907 C 10.629,14.503 10.378,15 9.96,15 H 6.04 C 5.621,15 5.37,14.503 5.602,14.153 a 19.919,19.919 0 0 0 1.582,-2.907 z"
         id="path1-2"
         style="fill:#ffffff;fill-opacity:1" /></g><path
       fill="#000000"
       d="M 10.496754,7.3008118 A 1.8311408,1.8311408 0 0 1 6.9508806,7.9436833 c -0.0014,1.204924 0.07591,2.0066289 1.2192994,2.6121597 H 5.0571531 C 6.2005424,9.9504875 6.2778551,9.1489579 6.2764529,7.9436833 a 1.8304397,1.8304397 0 1 1 -1.1630243,-2.3891608 1.8311408,1.8311408 0 1 1 3.0003008,0 1.8320174,1.8320174 0 0 1 2.3830246,1.7462893 z"
       id="path1-0"
       style="display:none;fill:#ffffff;fill-opacity:1;stroke-width:0.0175313" /><path
       fill="#231f20"
       d="m 6.4312771,10.706211 c 0.047264,0.05301 0.115284,0.08327 0.1863045,0.08327 h 2.499e-4 c 0.071021,0 0.1390408,-0.03051 0.1863048,-0.08352 L 10.101093,7.0121394 c 0.331847,-0.4051179 0.514649,-0.9140152 0.514649,-1.433416 0,-1.2636167 -1.0485538,-2.2914149 -2.3376779,-2.2914149 -0.6346843,0 -1.226356,0.245071 -1.6634826,0.6814476 C 6.1774545,3.5326297 5.5857829,3.2873085 4.9510988,3.2873085 c -1.2888743,0 -2.3376784,1.0277982 -2.3376784,2.2914149 0,0.5196507 0.1828036,1.0290484 0.5236518,1.4446693 0.03201,0.039012 2.5297342,2.8288207 3.2942049,3.6828183 z"
       id="path1-5"
       style="fill:#be1931;fill-opacity:1;stroke:none;stroke-width:0.250071" /></g></svg>
