<svg height="13.229327mm" viewBox="0 0 13.229165 13.229165" width="13.229327mm" xmlns="http://www.w3.org/2000/svg"><circle cx="6.61458224687" cy="6.61458683187" fill="none" r="6.37368742776" stroke="#fff" stroke-linecap="round" stroke-linejoin="bevel" stroke-width=".48179057"/><path d="m6.4312771 10.706211c.047264.05301.115284.08327.1863045.08327h.0002499c.071021 0 .1390408-.03051.1863048-.08352l3.2969567-3.6938216c.331847-.4051179.514649-.9140152.514649-1.433416 0-1.2636167-1.0485538-2.2914149-2.3376779-2.2914149-.6346843 0-1.226356.245071-1.6634826.6814476-.437127-.4361264-1.0287986-.6814476-1.6634827-.6814476-1.2888743 0-2.3376784 1.0277982-2.3376784 2.2914149 0 .5196507.1828036 1.0290484.5236518 1.4446693.03201.039012 2.5297342 2.8288207 3.2942049 3.6828183z" fill="#be1931" transform="matrix(-1 0 -0 -1 13.229164 13.652977)"/></svg>