<svg height="13.229327mm" viewBox="0 0 13.229165 13.229165" width="13.229327mm" xmlns="http://www.w3.org/2000/svg"><circle cx="6.61458224687" cy="6.61458683187" fill="none" r="6.37368742776" stroke="#fff" stroke-linecap="round" stroke-linejoin="bevel" stroke-width=".48179057"/><path d="m7.184 11.246a3.5 3.5 0 0 1 -6.184-2.246c0-1.602 1.14-2.633 2.66-4.008 1.326-1.2 2.942-2.662 4.34-4.992 1.398 2.33 3.014 3.792 4.34 4.992 1.52 1.375 2.66 2.406 2.66 4.008a3.5 3.5 0 0 1 -6.184 2.246 19.92 19.92 0 0 0 1.582 2.907c.231.35-.02.847-.438.847h-3.92c-.419 0-.67-.497-.438-.847a19.919 19.919 0 0 0 1.582-2.907z" fill="#fff" transform="matrix(.54680559 0 0 .54680559 2.240137 2.116673)"/></svg>